<svg xmlns="http://www.w3.org/2000/svg" data-name="Layer 1" viewBox="0 0 64 80" x="0px" y="0px"><path d="M27.56,44.85c.04,.05,.09,.1,.12,.15,1.87,2.26,3.45,4.04,4.32,5,.87-.96,2.45-2.74,4.32-5,.03-.05,.08-.1,.12-.15,5.38-6.55,13.07-17,13.07-23.34,0-9.65-7.85-17.51-17.51-17.51S14.49,11.86,14.49,21.51c0,6.34,7.69,16.79,13.07,23.34Zm4.44-31.72c4.62,0,8.38,3.76,8.38,8.38s-3.76,8.38-8.38,8.38-8.38-3.76-8.38-8.38,3.76-8.38,8.38-8.38Z"/><path d="M50.2,45.1c-.17-.33-.52-.54-.89-.54h-10.05c-.56,.7-1.1,1.37-1.62,2-2.64,3.17-4.66,5.34-4.91,5.6-.19,.21-.45,.32-.73,.32s-.54-.11-.73-.32c-.25-.26-2.27-2.43-4.91-5.6-.52-.63-1.06-1.3-1.62-2H14.69c-.37,0-.72,.21-.89,.54l-7.91,15.44c-.16,.31-.14,.68,.04,.98,.18,.3,.5,.48,.85,.48H57.22c.35,0,.67-.18,.85-.48,.18-.3,.2-.67,.04-.98l-7.91-15.44Z"/></svg>