<svg xmlns="http://www.w3.org/2000/svg" xmlns:xlink="http://www.w3.org/1999/xlink" version="1.1" x="0px" y="0px" viewBox="0 0 100 125" enable-background="new 0 0 100 100" xml:space="preserve"><path d="M87.9990234,24.5c1.8291016-1.3320313,3.2441406-2.3505859,3.2441406-2.3505859l-4.0253906,0.2666016l2.8417969-4.0737305  c-0.9414063,0.4204102-3.1318359,1.2851563-4.328125,1.7524414c-3.4716797-4.1972656-9.5966797-5.418457-14.4072266-2.8422852  c-5.3457031,2.8623047-7.6220703,9.6132813-5.0537109,15.1220703c-15.1826172,0-30.3647461,0.0268555-45.5473633,0.0405273  c-4.2373047,0.0043945-8.4741211,0.0087891-12.7114258,0.0126953v0.4145508  c-0.1308594,3.7041016,1.7119141,7.5732422,3.581543,10.6376953C16.953125,52.265625,25.7177734,58.5625,34.5419922,63.5224609  c-1.9833984,1.3974609-3.2739258,2.4814453-3.2739258,2.4814453c-7.3276367,1.6513672-15.0683594,1.5078125-22.3266602-0.4267578  c4.3574219,4.2978516,9.5615234,7.7382813,15.328125,10.0703125C21.8481445,78.6796875,19.8115234,81.9892578,18.2128906,85.5  c4.5654297-3.2998047,9.7363281-5.7353516,15.168457-7.2167969c11.019043,2.0224609,30.230957-2.7001953,37.3901367-9.2255859  c1.6494141-1.5048828,3.4121094-2.8837891,4.9550781-4.4980469c3.09375-3.2382813,5.7226563-6.9169922,7.7783203-10.8964844  c4.3457031-8.4160156,6.0322266-18.1074219,4.8085938-27.4995117C88.2685547,25.6005859,88.1396484,25.0449219,87.9990234,24.5z   M77.6142578,25.5244141c-2.1220703,0-2.1220703-3.2919922,0-3.2919922  C79.7373047,22.2324219,79.7373047,25.5244141,77.6142578,25.5244141z"/><path d="M88.3134766,26.1635742C88.5078125,27.6616211,88.3007813,26.015625,88.3134766,26.1635742L88.3134766,26.1635742z"/><path d="M49.2353516,30.0239258l13.2578125-0.0117188c-14.3100586-4.9736328-28.5795898-10.0703125-42.9448242-14.9023438  c-1.9316406,4.7675781-1.2055664,10.1538086,0.2939453,14.9375L49.2353516,30.0239258z"/></svg>